<svg xmlns="http://www.w3.org/2000/svg" xmlns:xlink="http://www.w3.org/1999/xlink" width="30.79" height="30.79" viewBox="0 0 30.79 30.79">
  <defs>
    <linearGradient id="linear-gradient" x1="0.5" x2="0.5" y2="1" gradientUnits="objectBoundingBox">
      <stop offset="0" stop-color="#ca4bfc"/>
      <stop offset="1" stop-color="#5781ff"/>
    </linearGradient>
  </defs>
  <g id="Groupe_773" data-name="Groupe 773" transform="translate(0.501 0.5)">
    <path id="Union_69" data-name="Union 69" d="M9.851,27.7a7.09,7.09,0,0,1-2.09-5.045q0-.33.03-.655-.325.029-.655.03a7.135,7.135,0,1,1,0-14.27q.33,0,.655.03-.03-.325-.03-.655a7.135,7.135,0,1,1,14.27,0q0,.33-.029.655c.216-.02.435-.03.655-.03a7.135,7.135,0,0,1,0,14.27c-.22,0-.438-.01-.655-.03q.029.325.029.655A7.135,7.135,0,0,1,9.851,27.7Zm-.8-5.045a5.84,5.84,0,1,0,11.681,0,5.915,5.915,0,0,0-.069-.9,7.1,7.1,0,0,1-3.057-1.81.648.648,0,0,1,.916-.917,5.844,5.844,0,0,0,1.669,1.17,5.839,5.839,0,0,0-1.169-1.668.647.647,0,0,1,.915-.915,7.094,7.094,0,0,1,1.81,3.054,5.913,5.913,0,0,0,.905.069,5.84,5.84,0,0,0,0-11.68,5.918,5.918,0,0,0-.9.069,7.1,7.1,0,0,1-1.81,3.056.647.647,0,0,1-.915-.915A5.847,5.847,0,0,0,20.2,9.6a5.839,5.839,0,0,0-1.67,1.17.647.647,0,0,1-.916-.915,7.09,7.09,0,0,1,3.057-1.81,5.914,5.914,0,0,0,.069-.9,5.84,5.84,0,1,0-11.681,0,5.916,5.916,0,0,0,.069.9A7.094,7.094,0,0,1,12.18,9.85a.647.647,0,0,1-.916.915A5.843,5.843,0,0,0,9.6,9.6a5.837,5.837,0,0,0,1.17,1.67.647.647,0,0,1-.915.915,7.1,7.1,0,0,1-1.81-3.056,5.92,5.92,0,0,0-.9-.069,5.84,5.84,0,1,0,0,11.68,5.912,5.912,0,0,0,.9-.069,7.09,7.09,0,0,1,1.81-3.054.647.647,0,0,1,.915.915A5.839,5.839,0,0,0,9.6,20.195a5.842,5.842,0,0,0,1.668-1.17.648.648,0,1,1,.916.917,7.1,7.1,0,0,1-3.056,1.81A5.917,5.917,0,0,0,9.055,22.656Zm2.628,2.336A3.212,3.212,0,1,1,14.9,28.2,3.216,3.216,0,0,1,11.683,24.992Zm1.3,0A1.917,1.917,0,1,0,14.9,23.074,1.919,1.919,0,0,0,12.979,24.992Zm8.8-10.1a3.212,3.212,0,1,1,3.213,3.213A3.216,3.216,0,0,1,21.779,14.9Zm1.3,0a1.917,1.917,0,1,0,1.917-1.917A1.919,1.919,0,0,0,23.074,14.9Zm-21.487,0A3.212,3.212,0,1,1,4.8,18.108,3.215,3.215,0,0,1,1.587,14.9Zm1.294,0A1.918,1.918,0,1,0,4.8,12.978,1.919,1.919,0,0,0,2.881,14.9Zm8.8-10.1A3.212,3.212,0,1,1,14.9,8.012,3.216,3.216,0,0,1,11.683,4.8Zm1.3,0A1.917,1.917,0,1,0,14.9,2.881,1.92,1.92,0,0,0,12.979,4.8Z" transform="translate(-0.001 0)" stroke="rgba(0,0,0,0)" stroke-miterlimit="10" stroke-width="1" fill="url(#linear-gradient)"/>
  </g>
</svg>
