<svg xmlns="http://www.w3.org/2000/svg" width="36.608" height="23.643" viewBox="0 0 36.608 23.643"><defs><style>.a{fill:#cade49;}.b{fill:#9fd343;}.c{fill:#aad643;}.d{fill:#82c736;}.e{fill:#fff;}</style></defs><rect class="a" width="31.88" height="18.914" transform="translate(4.729 4.729)"/><path class="a" d="M10.364,18.864H39.88V16.5H8V35.414h2.364Z" transform="translate(-8 -16.5)"/><path class="b" d="M13.464,21.964H42.98V19.6H11.1V38.514h2.364Z" transform="translate(-8.736 -17.236)"/><rect class="c" width="26.007" height="12.965" transform="translate(7.703 7.703)"/><ellipse class="d" cx="3.661" cy="5.034" rx="3.661" ry="5.034" transform="translate(17.008 9.152)"/><path class="d" d="M22.218,26.6A4.1,4.1,0,0,1,18.1,30.718h0V26.6Z" transform="translate(-10.397 -18.897)"/><path class="d" d="M50.818,26.6v4.118A4.1,4.1,0,0,1,46.7,26.6Z" transform="translate(-17.185 -18.897)"/><path class="d" d="M22.218,42.318H18.1V38.2h0A4.1,4.1,0,0,1,22.218,42.318Z" transform="translate(-10.397 -21.65)"/><path class="d" d="M50.818,38.2v4.118H46.7A4.1,4.1,0,0,1,50.818,38.2Z" transform="translate(-17.185 -21.65)"/><path class="e" d="M36.366,34.518c-.076-.229-.305-.839-1.678-1.068v-1.6a.82.82,0,0,1,.61.686c.076.305.229.381.534.381.153,0,.991-.229.153-1.3a1.6,1.6,0,0,0-1.22-.534V30.4H34.23v.686c-1.525.153-1.678,1.144-1.678,1.6,0,1.373,1.3,1.6,1.678,1.678V36.2c-.61-.153-.763-.839-.839-.991a.428.428,0,0,0-.458-.305.568.568,0,0,0-.534.458,1.706,1.706,0,0,0,.991,1.449,2.212,2.212,0,0,0,.839.229v.61h.534v-.686a2.163,2.163,0,0,0,.991-.305,1.751,1.751,0,0,0,.61-2.135ZM34.23,33.3c-.381-.153-.686-.229-.686-.763,0-.229.076-.61.686-.763Zm.534,2.9V34.442c.839.229.839.61.839.839A1.045,1.045,0,0,1,34.764,36.2Z" transform="translate(-13.791 -19.799)"/><circle class="d" cx="0.991" cy="0.991" r="0.991" transform="translate(13.576 13.194)"/><circle class="d" cx="0.991" cy="0.991" r="0.991" transform="translate(25.778 13.194)"/></svg>