<?xml version="1.0" encoding="UTF-8"?>
<svg xmlns="http://www.w3.org/2000/svg" xmlns:xlink="http://www.w3.org/1999/xlink" viewBox="0 0 45 45" width="45px" height="45px">
<g id="surface357432732">
<path style=" stroke:none;fill-rule:nonzero;fill:rgb(100%,100%,100%);fill-opacity:1;" d="M 14.398438 2.699219 C 7.949219 2.699219 2.699219 7.949219 2.699219 14.398438 L 2.699219 30.601562 C 2.699219 37.050781 7.949219 42.300781 14.398438 42.300781 L 30.601562 42.300781 C 37.050781 42.300781 42.300781 37.050781 42.300781 30.601562 L 42.300781 14.398438 C 42.300781 7.949219 37.050781 2.699219 30.601562 2.699219 Z M 14.398438 4.5 L 30.601562 4.5 C 36.078125 4.5 40.5 8.921875 40.5 14.398438 L 40.5 30.601562 C 40.5 36.078125 36.078125 40.5 30.601562 40.5 L 14.398438 40.5 C 8.921875 40.5 4.5 36.078125 4.5 30.601562 L 4.5 14.398438 C 4.5 8.921875 8.921875 4.5 14.398438 4.5 Z M 33.300781 9.898438 C 32.304688 9.898438 31.5 10.707031 31.5 11.699219 C 31.5 12.695312 32.304688 13.5 33.300781 13.5 C 34.292969 13.5 35.101562 12.695312 35.101562 11.699219 C 35.101562 10.707031 34.292969 9.898438 33.300781 9.898438 Z M 22.5 12.601562 C 17.042969 12.601562 12.601562 17.042969 12.601562 22.5 C 12.601562 27.957031 17.042969 32.398438 22.5 32.398438 C 27.957031 32.398438 32.398438 27.957031 32.398438 22.5 C 32.398438 17.042969 27.957031 12.601562 22.5 12.601562 Z M 22.5 14.398438 C 26.984375 14.398438 30.601562 18.015625 30.601562 22.5 C 30.601562 26.984375 26.984375 30.601562 22.5 30.601562 C 18.015625 30.601562 14.398438 26.984375 14.398438 22.5 C 14.398438 18.015625 18.015625 14.398438 22.5 14.398438 Z M 22.5 14.398438 "/>
</g>
</svg>
