<svg xmlns="http://www.w3.org/2000/svg" xmlns:xlink="http://www.w3.org/1999/xlink" width="33.5" height="20.235" viewBox="0 0 33.5 20.235"><defs><style>.a,.c{fill:#d9d9d9;}.b{clip-path:url(#a);}.c{stroke:#cbcbcb;stroke-miterlimit:10;stroke-width:2px;}.d{clip-path:url(#b);}.e{clip-path:url(#c);}</style><clipPath id="a"><path d="M14,24.506A.516.516,0,0,1,14.523,24H46.977a.516.516,0,0,1,.523.506V43.729a.516.516,0,0,1-.523.506H14.523A.516.516,0,0,1,14,43.729Z" transform="translate(-14 -24)"/></clipPath><clipPath id="b"><path d="M19.3,35a.268.268,0,0,1,.258-.3H49.3a.268.268,0,0,1,.258.3v4.247a.268.268,0,0,1-.258.3H19.558a.268.268,0,0,1-.258-.3Z" transform="translate(-19.3 -34.7)"/></clipPath><clipPath id="c"><path d="M63.482,71.051a.58.58,0,1,0-.516-.576A.512.512,0,0,0,63.482,71.051ZM62.754,73.3l.849-1.669a1.078,1.078,0,0,1-.3.061A1.106,1.106,0,0,1,62.238,70.5a1.244,1.244,0,1,1,2.488,0,2.1,2.1,0,0,1-.3,1.031l-.88,1.79h-.789Zm-2.579-2.4a.47.47,0,0,0,.485-.516.487.487,0,0,0-.485-.516.516.516,0,1,0,0,1.031Zm0,1.76a.546.546,0,1,0-.546-.546A.509.509,0,0,0,60.175,72.658Zm0,.667a1.187,1.187,0,0,1-1.3-1.213,1.029,1.029,0,0,1,.516-.91.985.985,0,0,1-.455-.849,1.247,1.247,0,0,1,2.488,0,1.028,1.028,0,0,1-.455.849,1.094,1.094,0,0,1,.516.91,1.218,1.218,0,0,1-1.3,1.213Zm-3.307-2.275a.58.58,0,1,0-.516-.576C56.353,70.838,56.535,71.051,56.868,71.051ZM56.14,73.3l.849-1.669a1.078,1.078,0,0,1-.3.061A1.106,1.106,0,0,1,55.625,70.5a1.244,1.244,0,1,1,2.488,0,2.1,2.1,0,0,1-.3,1.031l-.88,1.79H56.14Zm-3.792-4.035h-.516l.03.7-.607-.394-.273.455.637.334-.637.334.273.455.607-.394-.03.7h.516l-.03-.7.607.394.273-.455-.637-.334.637-.334-.273-.455-.607.394Zm-3.094,0h-.516l.03.7-.607-.394-.273.455.637.334-.637.334.273.455.607-.394-.03.7h.516l-.03-.7.607.394.273-.455-.637-.334.637-.334-.273-.455-.607.394Zm-3.094,0h-.516l.03.7-.607-.394-.243.455.607.334-.607.334.273.455.607-.394-.03.7h.516l-.03-.7.607.394.273-.455-.667-.334.637-.334-.273-.455-.607.394Zm-3.094,0h-.516l.03.7-.607-.394-.273.455.637.334-.637.334.273.455.607-.394-.03.7h.516l-.03-.7.607.394.273-.455-.637-.334.637-.334-.273-.455-.607.394Z" transform="translate(-41.7 -69.2)"/></clipPath></defs><path class="a" d="M14,24.506A.516.516,0,0,1,14.523,24H46.977a.516.516,0,0,1,.523.506V43.729a.516.516,0,0,1-.523.506H14.523A.516.516,0,0,1,14,43.729Z" transform="translate(-14 -24)"/><g class="b"><path class="c" d="M14,24.506A.516.516,0,0,1,14.523,24H46.977a.516.516,0,0,1,.523.506V43.729a.516.516,0,0,1-.523.506H14.523A.516.516,0,0,1,14,43.729Z" transform="translate(-14 -24)"/></g><g class="d" transform="translate(1.608 3.246)"><rect width="32.833" height="7.888" transform="translate(-1.29 -1.517)"/></g><g class="e" transform="translate(5.569 10.966)"><rect width="26.059" height="7.129" transform="translate(-1.487 -1.487)"/></g></svg>