<?xml version="1.0" encoding="UTF-8"?>
<svg xmlns="http://www.w3.org/2000/svg" xmlns:xlink="http://www.w3.org/1999/xlink" viewBox="0 0 45 45" width="45px" height="45px">
<g id="surface357490375">
<path style=" stroke:none;fill-rule:nonzero;fill:rgb(100%,100%,100%);fill-opacity:1;" d="M 12.152344 5.625 C 10.101562 5.625 8.4375 7.285156 8.4375 9.339844 C 8.4375 11.390625 10.101562 13.089844 12.152344 13.089844 C 14.203125 13.089844 15.867188 11.390625 15.867188 9.339844 C 15.867188 7.289062 14.207031 5.625 12.152344 5.625 Z M 30.285156 15.46875 C 27.164062 15.46875 25.378906 17.101562 24.519531 18.722656 L 24.429688 18.722656 L 24.429688 15.90625 L 18.28125 15.90625 L 18.28125 36.5625 L 24.6875 36.5625 L 24.6875 26.335938 C 24.6875 23.644531 24.890625 21.039062 28.226562 21.039062 C 31.511719 21.039062 31.5625 24.109375 31.5625 26.507812 L 31.5625 36.5625 L 37.96875 36.5625 L 37.96875 25.214844 C 37.96875 19.664062 36.773438 15.46875 30.285156 15.46875 Z M 8.949219 15.90625 L 8.949219 36.5625 L 15.363281 36.5625 L 15.363281 15.90625 Z M 8.949219 15.90625 "/>
</g>
</svg>
