<svg width="111" height="110" viewBox="0 0 111 110" fill="none" xmlns="http://www.w3.org/2000/svg">
<path d="M30.9227 17.1793C28.8612 17.1793 27.4868 19.2408 27.4868 20.6151V37.7944H20.6151V20.6151C20.6151 18.5536 19.2408 17.1793 17.1793 17.1793C15.1177 17.1793 13.7434 19.2408 13.7434 20.6151V37.7944H6.8717V20.6151C6.8717 18.5536 5.49736 17.1793 3.43585 17.1793C1.37434 17.1793 0 19.2408 0 20.6151V43.2917C0 49.4763 4.81019 54.2865 10.3076 54.9736V103.076C10.3076 107.199 13.0562 109.947 17.1793 109.947C21.3023 109.947 24.051 107.199 24.051 103.076V54.9736C29.5483 54.2865 34.3585 49.4763 34.3585 43.2917V20.6151C34.3585 19.2408 32.9842 17.1793 30.9227 17.1793ZM44.6661 20.6151V61.8453H51.5378V103.076C51.5378 107.199 54.2865 109.947 58.4095 109.947C62.5325 109.947 65.2812 107.199 65.2812 103.076V0C53.5993 0 44.6661 8.93321 44.6661 20.6151ZM92.768 13.7434C83.1476 13.7434 75.5887 24.051 75.5887 36.42C74.9016 44.6661 79.0246 52.2249 85.8963 57.0351V103.076C85.8963 107.199 88.645 109.947 92.768 109.947C96.891 109.947 99.6397 107.199 99.6397 103.076V57.0351C106.511 52.2249 110.634 44.6661 109.947 36.42C109.947 24.051 102.388 13.7434 92.768 13.7434Z" fill="#6779FE"/>
</svg>
